<?xml version="1.0" encoding="UTF-8" standalone="no"?>
<!-- Created with Inkscape (http://www.inkscape.org/) -->

<svg
   xmlns:dc="http://purl.org/dc/elements/1.1/"
   xmlns:cc="http://creativecommons.org/ns#"
   xmlns:rdf="http://www.w3.org/1999/02/22-rdf-syntax-ns#"
   xmlns:svg="http://www.w3.org/2000/svg"
   xmlns="http://www.w3.org/2000/svg"
   xmlns:sodipodi="http://sodipodi.sourceforge.net/DTD/sodipodi-0.dtd"
   xmlns:inkscape="http://www.inkscape.org/namespaces/inkscape"
   width="199.325"
   height="272.26248"
   id="svg3917"
   version="1.1"
   inkscape:version="0.48.4 r9939"
   sodipodi:docname="inku-logo.svg">
  <defs
     id="defs3919" />
  <sodipodi:namedview
     id="base"
     pagecolor="#ffffff"
     bordercolor="#666666"
     borderopacity="1.0"
     inkscape:pageopacity="0.0"
     inkscape:pageshadow="2"
     inkscape:zoom="1.4"
     inkscape:cx="76.983185"
     inkscape:cy="92.041623"
     inkscape:document-units="px"
     inkscape:current-layer="layer1"
     showgrid="false"
     fit-margin-top="1.1"
     fit-margin-right="1.1"
     fit-margin-left="1.1"
     fit-margin-bottom="1.1"
     inkscape:showpageshadow="false"
     inkscape:window-width="1920"
     inkscape:window-height="1025"
     inkscape:window-x="0"
     inkscape:window-y="33"
     inkscape:window-maximized="1" />
  <metadata
     id="metadata3922">
    <rdf:RDF>
      <cc:Work
         rdf:about="">
        <dc:format>image/svg+xml</dc:format>
        <dc:type
           rdf:resource="http://purl.org/dc/dcmitype/StillImage" />
        <dc:title></dc:title>
      </cc:Work>
    </rdf:RDF>
  </metadata>
  <g
     inkscape:label="Layer 1"
     inkscape:groupmode="layer"
     id="layer1"
     transform="translate(-271.76608,-370.51665)">
    <path
       inkscape:connector-curvature="0"
       style="fill:#37474f;fill-opacity:1"
       d="m 371.39738,371.61665 -76.53125,109.40624 c -2.96797,3.65587 -5.6976,7.53186 -8.125,11.59375 l -0.5625,0.8125 0.0937,0 c -8.53249,14.58937 -13.40625,31.56626 -13.40625,49.6875 0,54.43796 44.12454,98.5625 98.5625,98.5625 54.43795,0 98.56249,-44.12454 98.56249,-98.5625 0,-18.12124 -4.90501,-35.09813 -13.4375,-49.6875 l 0.0937,0 -0.56245,-0.8125 c -2.48017,-4.15018 -5.23739,-8.11806 -8.28125,-11.84375 L 371.39738,371.61665 z m 67.28124,188.43749 c 1.68035,9.61575 0.42541,19.92035 -4.21875,29.40625 -11.27582,23.03135 -38.27917,32.57694 -60.34374,21.3125 -4.72641,-2.41293 -8.84297,-5.62259 -12.28125,-9.34375 14.34072,6.45828 34.23238,4.0494 51.49999,-7.75 12.94611,-8.8464 21.77568,-21.18604 25.34375,-33.625 z"
       id="path3841-7" />
  </g>
</svg>
